<?xml version="1.0" encoding="UTF-8" standalone="no"?>
<!DOCTYPE svg PUBLIC "-//W3C//DTD SVG 1.1//EN"
 "http://www.w3.org/Graphics/SVG/1.1/DTD/svg11.dtd">
<!-- Generated by graphviz version 5.0.0 (20220707.1540)
 -->
<!-- Title: dependencies Pages: 1 -->
<svg width="529pt" height="174pt"
 viewBox="0.00 0.00 529.00 173.80" xmlns="http://www.w3.org/2000/svg" xmlns:xlink="http://www.w3.org/1999/xlink">
<g id="graph0" class="graph" transform="scale(1 1) rotate(0) translate(4 169.8)">
<title>dependencies</title>
<polygon fill="white" stroke="transparent" points="-4,4 -4,-169.8 525,-169.8 525,4 -4,4"/>
<text text-anchor="middle" x="260.5" y="-8.2" font-family="sans-serif" font-size="14.00">dependencies</text>
<g id="clust1" class="cluster">
<title>cluster_ResponseAnswerModule</title>
<polygon fill="none" stroke="black" stroke-dasharray="1,5" points="8,-32.8 8,-157.8 513,-157.8 513,-32.8 8,-32.8"/>
</g>
<g id="clust3" class="cluster">
<title>cluster_ResponseAnswerModule_imports</title>
<polygon fill="none" stroke="black" points="254,-40.8 254,-92.8 505,-92.8 505,-40.8 254,-40.8"/>
</g>
<g id="clust6" class="cluster">
<title>cluster_ResponseAnswerModule_providers</title>
<polygon fill="none" stroke="black" points="16,-40.8 16,-92.8 246,-92.8 246,-40.8 16,-40.8"/>
</g>
<!-- AnswerModule -->
<g id="node1" class="node">
<title>AnswerModule</title>
<polygon fill="#8dd3c7" stroke="black" points="496.6,-84.8 493.6,-88.8 472.6,-88.8 469.6,-84.8 393.4,-84.8 393.4,-48.8 496.6,-48.8 496.6,-84.8"/>
<text text-anchor="middle" x="445" y="-62.6" font-family="Times,serif" font-size="14.00">AnswerModule</text>
</g>
<!-- ResponseAnswerModule -->
<g id="node3" class="node">
<title>ResponseAnswerModule</title>
<polygon fill="#8dd3c7" stroke="black" points="397.26,-149.8 394.26,-153.8 373.26,-153.8 370.26,-149.8 240.74,-149.8 240.74,-113.8 397.26,-113.8 397.26,-149.8"/>
<text text-anchor="middle" x="319" y="-127.6" font-family="Times,serif" font-size="14.00">ResponseAnswerModule</text>
</g>
<!-- AnswerModule&#45;&gt;ResponseAnswerModule -->
<g id="edge1" class="edge">
<title>AnswerModule&#45;&gt;ResponseAnswerModule</title>
<path fill="none" stroke="black" d="M393.19,-66.8C387.96,-66.8 384.53,-66.8 384.53,-66.8 384.53,-66.8 384.53,-103.69 384.53,-103.69"/>
<polygon fill="black" stroke="black" points="381.03,-103.69 384.53,-113.69 388.03,-103.69 381.03,-103.69"/>
</g>
<!-- ResponseModule -->
<g id="node2" class="node">
<title>ResponseModule</title>
<polygon fill="#8dd3c7" stroke="black" points="375.71,-84.8 372.71,-88.8 351.71,-88.8 348.71,-84.8 262.29,-84.8 262.29,-48.8 375.71,-48.8 375.71,-84.8"/>
<text text-anchor="middle" x="319" y="-62.6" font-family="Times,serif" font-size="14.00">ResponseModule</text>
</g>
<!-- ResponseModule&#45;&gt;ResponseAnswerModule -->
<g id="edge2" class="edge">
<title>ResponseModule&#45;&gt;ResponseAnswerModule</title>
<path fill="none" stroke="black" d="M319,-84.91C319,-84.91 319,-103.79 319,-103.79"/>
<polygon fill="black" stroke="black" points="315.5,-103.79 319,-113.79 322.5,-103.79 315.5,-103.79"/>
</g>
<!-- ResponseAnswerService -->
<g id="node4" class="node">
<title>ResponseAnswerService</title>
<ellipse fill="#fdb462" stroke="black" cx="131" cy="-66.8" rx="107.09" ry="18"/>
<text text-anchor="middle" x="131" y="-62.6" font-family="Times,serif" font-size="14.00">ResponseAnswerService</text>
</g>
<!-- ResponseAnswerService&#45;&gt;ResponseAnswerModule -->
<g id="edge3" class="edge">
<title>ResponseAnswerService&#45;&gt;ResponseAnswerModule</title>
<path fill="none" stroke="black" d="M238.15,-66.8C246.34,-66.8 251.51,-66.8 251.51,-66.8 251.51,-66.8 251.51,-103.69 251.51,-103.69"/>
<polygon fill="black" stroke="black" points="248.01,-103.69 251.51,-113.69 255.01,-103.69 248.01,-103.69"/>
</g>
</g>
</svg>
