<?xml version="1.0" encoding="UTF-8" standalone="no"?>
<!DOCTYPE svg PUBLIC "-//W3C//DTD SVG 1.1//EN"
 "http://www.w3.org/Graphics/SVG/1.1/DTD/svg11.dtd">
<!-- Generated by graphviz version 5.0.0 (20220707.1540)
 -->
<!-- Title: dependencies Pages: 1 -->
<svg width="334pt" height="174pt"
 viewBox="0.00 0.00 334.00 173.80" xmlns="http://www.w3.org/2000/svg" xmlns:xlink="http://www.w3.org/1999/xlink">
<g id="graph0" class="graph" transform="scale(1 1) rotate(0) translate(4 169.8)">
<title>dependencies</title>
<polygon fill="white" stroke="transparent" points="-4,4 -4,-169.8 330,-169.8 330,4 -4,4"/>
<text text-anchor="middle" x="163" y="-8.2" font-family="sans-serif" font-size="14.00">dependencies</text>
<g id="clust1" class="cluster">
<title>cluster_QuestionModule</title>
<polygon fill="none" stroke="black" stroke-dasharray="1,5" points="8,-32.8 8,-157.8 318,-157.8 318,-32.8 8,-32.8"/>
</g>
<g id="clust3" class="cluster">
<title>cluster_QuestionModule_imports</title>
<polygon fill="none" stroke="black" points="190,-40.8 190,-92.8 310,-92.8 310,-40.8 190,-40.8"/>
</g>
<g id="clust6" class="cluster">
<title>cluster_QuestionModule_providers</title>
<polygon fill="none" stroke="black" points="16,-40.8 16,-92.8 182,-92.8 182,-40.8 16,-40.8"/>
</g>
<!-- AnswerModule -->
<g id="node1" class="node">
<title>AnswerModule</title>
<polygon fill="#8dd3c7" stroke="black" points="301.6,-84.8 298.6,-88.8 277.6,-88.8 274.6,-84.8 198.4,-84.8 198.4,-48.8 301.6,-48.8 301.6,-84.8"/>
<text text-anchor="middle" x="250" y="-62.6" font-family="Times,serif" font-size="14.00">AnswerModule</text>
</g>
<!-- QuestionModule -->
<g id="node2" class="node">
<title>QuestionModule</title>
<polygon fill="#8dd3c7" stroke="black" points="229.1,-149.8 226.1,-153.8 205.1,-153.8 202.1,-149.8 118.9,-149.8 118.9,-113.8 229.1,-113.8 229.1,-149.8"/>
<text text-anchor="middle" x="174" y="-127.6" font-family="Times,serif" font-size="14.00">QuestionModule</text>
</g>
<!-- AnswerModule&#45;&gt;QuestionModule -->
<g id="edge1" class="edge">
<title>AnswerModule&#45;&gt;QuestionModule</title>
<path fill="none" stroke="black" d="M213.75,-84.91C213.75,-84.91 213.75,-103.79 213.75,-103.79"/>
<polygon fill="black" stroke="black" points="210.25,-103.79 213.75,-113.79 217.25,-103.79 210.25,-103.79"/>
</g>
<!-- QuestionService -->
<g id="node3" class="node">
<title>QuestionService</title>
<ellipse fill="#fdb462" stroke="black" cx="99" cy="-66.8" rx="74.73" ry="18"/>
<text text-anchor="middle" x="99" y="-62.6" font-family="Times,serif" font-size="14.00">QuestionService</text>
</g>
<!-- QuestionService&#45;&gt;QuestionModule -->
<g id="edge2" class="edge">
<title>QuestionService&#45;&gt;QuestionModule</title>
<path fill="none" stroke="black" d="M146.41,-80.9C146.41,-80.9 146.41,-103.52 146.41,-103.52"/>
<polygon fill="black" stroke="black" points="142.91,-103.52 146.41,-113.52 149.91,-103.52 142.91,-103.52"/>
</g>
</g>
</svg>
