<?xml version="1.0" encoding="UTF-8" standalone="no"?>
<!DOCTYPE svg PUBLIC "-//W3C//DTD SVG 1.1//EN"
 "http://www.w3.org/Graphics/SVG/1.1/DTD/svg11.dtd">
<!-- Generated by graphviz version 5.0.0 (20220707.1540)
 -->
<!-- Title: dependencies Pages: 1 -->
<svg width="310pt" height="174pt"
 viewBox="0.00 0.00 310.00 173.80" xmlns="http://www.w3.org/2000/svg" xmlns:xlink="http://www.w3.org/1999/xlink">
<g id="graph0" class="graph" transform="scale(1 1) rotate(0) translate(4 169.8)">
<title>dependencies</title>
<polygon fill="white" stroke="transparent" points="-4,4 -4,-169.8 306,-169.8 306,4 -4,4"/>
<text text-anchor="middle" x="151" y="-8.2" font-family="sans-serif" font-size="14.00">dependencies</text>
<g id="clust1" class="cluster">
<title>cluster_ResponseModule</title>
<polygon fill="none" stroke="black" stroke-dasharray="1,5" points="8,-32.8 8,-157.8 294,-157.8 294,-32.8 8,-32.8"/>
</g>
<g id="clust3" class="cluster">
<title>cluster_ResponseModule_imports</title>
<polygon fill="none" stroke="black" points="194,-40.8 194,-92.8 286,-92.8 286,-40.8 194,-40.8"/>
</g>
<g id="clust6" class="cluster">
<title>cluster_ResponseModule_providers</title>
<polygon fill="none" stroke="black" points="16,-40.8 16,-92.8 186,-92.8 186,-40.8 16,-40.8"/>
</g>
<!-- Participant -->
<g id="node1" class="node">
<title>Participant</title>
<polygon fill="#8dd3c7" stroke="black" points="278.15,-84.8 275.15,-88.8 254.15,-88.8 251.15,-84.8 201.85,-84.8 201.85,-48.8 278.15,-48.8 278.15,-84.8"/>
<text text-anchor="middle" x="240" y="-62.6" font-family="Times,serif" font-size="14.00">Participant</text>
</g>
<!-- ResponseModule -->
<g id="node2" class="node">
<title>ResponseModule</title>
<polygon fill="#8dd3c7" stroke="black" points="221.71,-149.8 218.71,-153.8 197.71,-153.8 194.71,-149.8 108.29,-149.8 108.29,-113.8 221.71,-113.8 221.71,-149.8"/>
<text text-anchor="middle" x="165" y="-127.6" font-family="Times,serif" font-size="14.00">ResponseModule</text>
</g>
<!-- Participant&#45;&gt;ResponseModule -->
<g id="edge1" class="edge">
<title>Participant&#45;&gt;ResponseModule</title>
<path fill="none" stroke="black" d="M211.64,-84.91C211.64,-84.91 211.64,-103.79 211.64,-103.79"/>
<polygon fill="black" stroke="black" points="208.14,-103.79 211.64,-113.79 215.14,-103.79 208.14,-103.79"/>
</g>
<!-- ResponseService -->
<g id="node3" class="node">
<title>ResponseService</title>
<ellipse fill="#fdb462" stroke="black" cx="101" cy="-66.8" rx="77.02" ry="18"/>
<text text-anchor="middle" x="101" y="-62.6" font-family="Times,serif" font-size="14.00">ResponseService</text>
</g>
<!-- ResponseService&#45;&gt;ResponseModule -->
<g id="edge2" class="edge">
<title>ResponseService&#45;&gt;ResponseModule</title>
<path fill="none" stroke="black" d="M143.2,-81.88C143.2,-81.88 143.2,-103.56 143.2,-103.56"/>
<polygon fill="black" stroke="black" points="139.7,-103.56 143.2,-113.56 146.7,-103.56 139.7,-103.56"/>
</g>
</g>
</svg>
