<?xml version="1.0" encoding="UTF-8" standalone="no"?>
<!DOCTYPE svg PUBLIC "-//W3C//DTD SVG 1.1//EN"
 "http://www.w3.org/Graphics/SVG/1.1/DTD/svg11.dtd">
<!-- Generated by graphviz version 5.0.0 (20220707.1540)
 -->
<!-- Title: dependencies Pages: 1 -->
<svg width="388pt" height="174pt"
 viewBox="0.00 0.00 388.00 173.80" xmlns="http://www.w3.org/2000/svg" xmlns:xlink="http://www.w3.org/1999/xlink">
<g id="graph0" class="graph" transform="scale(1 1) rotate(0) translate(4 169.8)">
<title>dependencies</title>
<polygon fill="white" stroke="transparent" points="-4,4 -4,-169.8 384,-169.8 384,4 -4,4"/>
<text text-anchor="middle" x="190" y="-8.2" font-family="sans-serif" font-size="14.00">dependencies</text>
<g id="clust1" class="cluster">
<title>cluster_AppModule</title>
<polygon fill="none" stroke="black" stroke-dasharray="1,5" points="8,-32.8 8,-157.8 372,-157.8 372,-32.8 8,-32.8"/>
</g>
<g id="clust3" class="cluster">
<title>cluster_AppModule_imports</title>
<polygon fill="none" stroke="black" points="154,-40.8 154,-92.8 364,-92.8 364,-40.8 154,-40.8"/>
</g>
<g id="clust6" class="cluster">
<title>cluster_AppModule_providers</title>
<polygon fill="none" stroke="black" points="16,-40.8 16,-92.8 146,-92.8 146,-40.8 16,-40.8"/>
</g>
<!-- Participant -->
<g id="node1" class="node">
<title>Participant</title>
<polygon fill="#8dd3c7" stroke="black" points="356.15,-84.8 353.15,-88.8 332.15,-88.8 329.15,-84.8 279.85,-84.8 279.85,-48.8 356.15,-48.8 356.15,-84.8"/>
<text text-anchor="middle" x="318" y="-62.6" font-family="Times,serif" font-size="14.00">Participant</text>
</g>
<!-- AppModule -->
<g id="node3" class="node">
<title>AppModule</title>
<polygon fill="#8dd3c7" stroke="black" points="253.66,-149.8 250.66,-153.8 229.66,-153.8 226.66,-149.8 170.34,-149.8 170.34,-113.8 253.66,-113.8 253.66,-149.8"/>
<text text-anchor="middle" x="212" y="-127.6" font-family="Times,serif" font-size="14.00">AppModule</text>
</g>
<!-- Participant&#45;&gt;AppModule -->
<g id="edge1" class="edge">
<title>Participant&#45;&gt;AppModule</title>
<path fill="none" stroke="black" d="M318,-84.91C318,-104.14 318,-131.8 318,-131.8 318,-131.8 263.89,-131.8 263.89,-131.8"/>
<polygon fill="black" stroke="black" points="263.89,-128.3 253.89,-131.8 263.89,-135.3 263.89,-128.3"/>
</g>
<!-- SurveyModule -->
<g id="node2" class="node">
<title>SurveyModule</title>
<polygon fill="#8dd3c7" stroke="black" points="261.71,-84.8 258.71,-88.8 237.71,-88.8 234.71,-84.8 162.29,-84.8 162.29,-48.8 261.71,-48.8 261.71,-84.8"/>
<text text-anchor="middle" x="212" y="-62.6" font-family="Times,serif" font-size="14.00">SurveyModule</text>
</g>
<!-- SurveyModule&#45;&gt;AppModule -->
<g id="edge2" class="edge">
<title>SurveyModule&#45;&gt;AppModule</title>
<path fill="none" stroke="black" d="M212,-84.91C212,-84.91 212,-103.79 212,-103.79"/>
<polygon fill="black" stroke="black" points="208.5,-103.79 212,-113.79 215.5,-103.79 208.5,-103.79"/>
</g>
<!-- AppService -->
<g id="node4" class="node">
<title>AppService</title>
<ellipse fill="#fdb462" stroke="black" cx="81" cy="-66.8" rx="56.75" ry="18"/>
<text text-anchor="middle" x="81" y="-62.6" font-family="Times,serif" font-size="14.00">AppService</text>
</g>
<!-- AppService&#45;&gt;AppModule -->
<g id="edge3" class="edge">
<title>AppService&#45;&gt;AppModule</title>
<path fill="none" stroke="black" d="M81,-84.91C81,-104.14 81,-131.8 81,-131.8 81,-131.8 160.19,-131.8 160.19,-131.8"/>
<polygon fill="black" stroke="black" points="160.19,-135.3 170.19,-131.8 160.19,-128.3 160.19,-135.3"/>
</g>
</g>
</svg>
