<?xml version="1.0" encoding="UTF-8" standalone="no"?>
<!DOCTYPE svg PUBLIC "-//W3C//DTD SVG 1.1//EN"
 "http://www.w3.org/Graphics/SVG/1.1/DTD/svg11.dtd">
<!-- Generated by graphviz version 5.0.0 (20220707.1540)
 -->
<!-- Title: dependencies Pages: 1 -->
<svg width="546pt" height="174pt"
 viewBox="0.00 0.00 546.00 173.80" xmlns="http://www.w3.org/2000/svg" xmlns:xlink="http://www.w3.org/1999/xlink">
<g id="graph0" class="graph" transform="scale(1 1) rotate(0) translate(4 169.8)">
<title>dependencies</title>
<polygon fill="white" stroke="transparent" points="-4,4 -4,-169.8 542,-169.8 542,4 -4,4"/>
<text text-anchor="middle" x="269" y="-8.2" font-family="sans-serif" font-size="14.00">dependencies</text>
<g id="clust1" class="cluster">
<title>cluster_ResponseQuestionModule</title>
<polygon fill="none" stroke="black" stroke-dasharray="1,5" points="8,-32.8 8,-157.8 530,-157.8 530,-32.8 8,-32.8"/>
</g>
<g id="clust6" class="cluster">
<title>cluster_ResponseQuestionModule_providers</title>
<polygon fill="none" stroke="black" points="282,-40.8 282,-92.8 522,-92.8 522,-40.8 282,-40.8"/>
</g>
<g id="clust3" class="cluster">
<title>cluster_ResponseQuestionModule_imports</title>
<polygon fill="none" stroke="black" points="16,-40.8 16,-92.8 274,-92.8 274,-40.8 16,-40.8"/>
</g>
<!-- QuestionModule -->
<g id="node1" class="node">
<title>QuestionModule</title>
<polygon fill="#8dd3c7" stroke="black" points="266.1,-84.8 263.1,-88.8 242.1,-88.8 239.1,-84.8 155.9,-84.8 155.9,-48.8 266.1,-48.8 266.1,-84.8"/>
<text text-anchor="middle" x="211" y="-62.6" font-family="Times,serif" font-size="14.00">QuestionModule</text>
</g>
<!-- ResponseQuestionModule -->
<g id="node3" class="node">
<title>ResponseQuestionModule</title>
<polygon fill="#8dd3c7" stroke="black" points="292.77,-149.8 289.77,-153.8 268.77,-153.8 265.77,-149.8 129.23,-149.8 129.23,-113.8 292.77,-113.8 292.77,-149.8"/>
<text text-anchor="middle" x="211" y="-127.6" font-family="Times,serif" font-size="14.00">ResponseQuestionModule</text>
</g>
<!-- QuestionModule&#45;&gt;ResponseQuestionModule -->
<g id="edge1" class="edge">
<title>QuestionModule&#45;&gt;ResponseQuestionModule</title>
<path fill="none" stroke="black" d="M211,-84.91C211,-84.91 211,-103.79 211,-103.79"/>
<polygon fill="black" stroke="black" points="207.5,-103.79 211,-113.79 214.5,-103.79 207.5,-103.79"/>
</g>
<!-- ResponseModule -->
<g id="node2" class="node">
<title>ResponseModule</title>
<polygon fill="#8dd3c7" stroke="black" points="137.71,-84.8 134.71,-88.8 113.71,-88.8 110.71,-84.8 24.29,-84.8 24.29,-48.8 137.71,-48.8 137.71,-84.8"/>
<text text-anchor="middle" x="81" y="-62.6" font-family="Times,serif" font-size="14.00">ResponseModule</text>
</g>
<!-- ResponseModule&#45;&gt;ResponseQuestionModule -->
<g id="edge2" class="edge">
<title>ResponseModule&#45;&gt;ResponseQuestionModule</title>
<path fill="none" stroke="black" d="M133.36,-84.91C133.36,-84.91 133.36,-103.79 133.36,-103.79"/>
<polygon fill="black" stroke="black" points="129.86,-103.79 133.36,-113.79 136.86,-103.79 129.86,-103.79"/>
</g>
<!-- ResponseQuestionService -->
<g id="node4" class="node">
<title>ResponseQuestionService</title>
<ellipse fill="#fdb462" stroke="black" cx="402" cy="-66.8" rx="111.76" ry="18"/>
<text text-anchor="middle" x="402" y="-62.6" font-family="Times,serif" font-size="14.00">ResponseQuestionService</text>
</g>
<!-- ResponseQuestionService&#45;&gt;ResponseQuestionModule -->
<g id="edge3" class="edge">
<title>ResponseQuestionService&#45;&gt;ResponseQuestionModule</title>
<path fill="none" stroke="black" d="M289.97,-66.8C282.63,-66.8 278.09,-66.8 278.09,-66.8 278.09,-66.8 278.09,-103.69 278.09,-103.69"/>
<polygon fill="black" stroke="black" points="274.59,-103.69 278.09,-113.69 281.59,-103.69 274.59,-103.69"/>
</g>
</g>
</svg>
