<?xml version="1.0" encoding="UTF-8" standalone="no"?>
<!DOCTYPE svg PUBLIC "-//W3C//DTD SVG 1.1//EN"
 "http://www.w3.org/Graphics/SVG/1.1/DTD/svg11.dtd">
<!-- Generated by graphviz version 5.0.0 (20220707.1540)
 -->
<!-- Title: dependencies Pages: 1 -->
<svg width="406pt" height="182pt"
 viewBox="0.00 0.00 406.00 181.80" xmlns="http://www.w3.org/2000/svg" xmlns:xlink="http://www.w3.org/1999/xlink">
<g id="graph0" class="graph" transform="scale(1 1) rotate(0) translate(4 177.8)">
<title>dependencies</title>
<polygon fill="white" stroke="transparent" points="-4,4 -4,-177.8 402,-177.8 402,4 -4,4"/>
<text text-anchor="middle" x="199" y="-8.2" font-family="sans-serif" font-size="14.00">dependencies</text>
<g id="clust1" class="cluster">
<title>cluster_SurveyModule</title>
<polygon fill="none" stroke="black" stroke-dasharray="1,5" points="8,-32.8 8,-165.8 390,-165.8 390,-32.8 8,-32.8"/>
</g>
<g id="clust6" class="cluster">
<title>cluster_SurveyModule_providers</title>
<polygon fill="none" stroke="black" points="158,-40.8 158,-92.8 382,-92.8 382,-40.8 158,-40.8"/>
</g>
<g id="clust3" class="cluster">
<title>cluster_SurveyModule_imports</title>
<polygon fill="none" stroke="black" points="16,-40.8 16,-157.8 150,-157.8 150,-40.8 16,-40.8"/>
</g>
<!-- ResponseModule -->
<g id="node1" class="node">
<title>ResponseModule</title>
<polygon fill="#8dd3c7" stroke="black" points="137.71,-84.8 134.71,-88.8 113.71,-88.8 110.71,-84.8 24.29,-84.8 24.29,-48.8 137.71,-48.8 137.71,-84.8"/>
<text text-anchor="middle" x="81" y="-62.6" font-family="Times,serif" font-size="14.00">ResponseModule</text>
</g>
<!-- SurveyModule -->
<g id="node2" class="node">
<title>SurveyModule</title>
<polygon fill="#8dd3c7" stroke="black" points="123.71,-149.8 120.71,-153.8 99.71,-153.8 96.71,-149.8 24.29,-149.8 24.29,-113.8 123.71,-113.8 123.71,-149.8"/>
<text text-anchor="middle" x="74" y="-127.6" font-family="Times,serif" font-size="14.00">SurveyModule</text>
</g>
<!-- ResponseModule&#45;&gt;SurveyModule -->
<g id="edge1" class="edge">
<title>ResponseModule&#45;&gt;SurveyModule</title>
<path fill="none" stroke="black" d="M57.46,-84.91C57.46,-84.91 57.46,-103.79 57.46,-103.79"/>
<polygon fill="black" stroke="black" points="53.96,-103.79 57.46,-113.79 60.96,-103.79 53.96,-103.79"/>
</g>
<!-- SurveyModule&#45;&gt;SurveyModule -->
<g id="edge2" class="edge">
<title>SurveyModule&#45;&gt;SurveyModule</title>
<path fill="none" stroke="black" d="M90.54,-113.56C90.54,-106.37 90.54,-99.8 90.54,-99.8 90.54,-99.8 130.61,-99.8 130.61,-99.8 130.61,-99.8 130.61,-167.8 130.61,-167.8 130.61,-167.8 74,-167.8 74,-167.8 74,-167.8 74,-160.22 74,-160.22"/>
<polygon fill="black" stroke="black" points="77.5,-160.22 74,-150.22 70.5,-160.22 77.5,-160.22"/>
</g>
<!-- ResponseSurveyService -->
<g id="node3" class="node">
<title>ResponseSurveyService</title>
<ellipse fill="#fdb462" stroke="black" cx="270" cy="-66.8" rx="104.23" ry="18"/>
<text text-anchor="middle" x="270" y="-62.6" font-family="Times,serif" font-size="14.00">ResponseSurveyService</text>
</g>
<!-- ResponseSurveyService&#45;&gt;SurveyModule -->
<g id="edge3" class="edge">
<title>ResponseSurveyService&#45;&gt;SurveyModule</title>
<path fill="none" stroke="black" d="M270,-84.91C270,-104.14 270,-131.8 270,-131.8 270,-131.8 133.71,-131.8 133.71,-131.8"/>
<polygon fill="black" stroke="black" points="133.71,-128.3 123.71,-131.8 133.71,-135.3 133.71,-128.3"/>
</g>
</g>
</svg>
