<?xml version="1.0" encoding="UTF-8" standalone="no"?>
<!DOCTYPE svg PUBLIC "-//W3C//DTD SVG 1.1//EN"
 "http://www.w3.org/Graphics/SVG/1.1/DTD/svg11.dtd">
<!-- Generated by graphviz version 5.0.0 (20220707.1540)
 -->
<!-- Title: dependencies Pages: 1 -->
<svg width="1383pt" height="394pt"
 viewBox="0.00 0.00 1383.00 393.80" xmlns="http://www.w3.org/2000/svg" xmlns:xlink="http://www.w3.org/1999/xlink">
<g id="graph0" class="graph" transform="scale(1 1) rotate(0) translate(4 389.8)">
<title>dependencies</title>
<polygon fill="white" stroke="transparent" points="-4,4 -4,-389.8 1379,-389.8 1379,4 -4,4"/>
<text text-anchor="middle" x="687.5" y="-8.2" font-family="sans-serif" font-size="14.00">dependencies</text>
<g id="clust1" class="cluster">
<title>cluster_AnswerModule</title>
<polygon fill="none" stroke="black" stroke-dasharray="1,5" points="991,-32.8 991,-160.8 1163,-160.8 1163,-32.8 991,-32.8"/>
</g>
<g id="clust6" class="cluster">
<title>cluster_AnswerModule_providers</title>
<polygon fill="none" stroke="black" points="999,-40.8 999,-92.8 1155,-92.8 1155,-40.8 999,-40.8"/>
</g>
<g id="clust7" class="cluster">
<title>cluster_AppModule</title>
<polygon fill="none" stroke="black" stroke-dasharray="1,5" points="400,-252.8 400,-377.8 782,-377.8 782,-252.8 400,-252.8"/>
</g>
<g id="clust9" class="cluster">
<title>cluster_AppModule_imports</title>
<polygon fill="none" stroke="black" points="546,-260.8 546,-312.8 774,-312.8 774,-260.8 546,-260.8"/>
</g>
<g id="clust12" class="cluster">
<title>cluster_AppModule_providers</title>
<polygon fill="none" stroke="black" points="408,-260.8 408,-312.8 538,-312.8 538,-260.8 408,-260.8"/>
</g>
<g id="clust13" class="cluster">
<title>cluster_ParticipantModule</title>
<polygon fill="none" stroke="black" stroke-dasharray="1,5" points="1171,-32.8 1171,-160.8 1367,-160.8 1367,-32.8 1171,-32.8"/>
</g>
<g id="clust18" class="cluster">
<title>cluster_ParticipantModule_providers</title>
<polygon fill="none" stroke="black" points="1179,-40.8 1179,-92.8 1359,-92.8 1359,-40.8 1179,-40.8"/>
</g>
<g id="clust19" class="cluster">
<title>cluster_QuestionModule</title>
<polygon fill="none" stroke="black" stroke-dasharray="1,5" points="801,-100.8 801,-236.8 983,-236.8 983,-100.8 801,-100.8"/>
</g>
<g id="clust24" class="cluster">
<title>cluster_QuestionModule_providers</title>
<polygon fill="none" stroke="black" points="809,-108.8 809,-160.8 975,-160.8 975,-108.8 809,-108.8"/>
</g>
<g id="clust25" class="cluster">
<title>cluster_ResponseAnswerModule</title>
<polygon fill="none" stroke="black" stroke-dasharray="1,5" points="8,-176.8 8,-312.8 392,-312.8 392,-176.8 8,-176.8"/>
</g>
<g id="clust27" class="cluster">
<title>cluster_ResponseAnswerModule_imports</title>
<polygon fill="none" stroke="black" points="254,-184.8 254,-236.8 384,-236.8 384,-184.8 254,-184.8"/>
</g>
<g id="clust30" class="cluster">
<title>cluster_ResponseAnswerModule_providers</title>
<polygon fill="none" stroke="black" points="16,-184.8 16,-236.8 246,-236.8 246,-184.8 16,-184.8"/>
</g>
<g id="clust31" class="cluster">
<title>cluster_ResponseModule</title>
<polygon fill="none" stroke="black" stroke-dasharray="1,5" points="226,-100.8 226,-168.8 412,-168.8 412,-100.8 226,-100.8"/>
</g>
<g id="clust36" class="cluster">
<title>cluster_ResponseModule_providers</title>
<polygon fill="none" stroke="black" points="234,-108.8 234,-160.8 404,-160.8 404,-108.8 234,-108.8"/>
</g>
<g id="clust37" class="cluster">
<title>cluster_ResponseQuestionModule</title>
<polygon fill="none" stroke="black" stroke-dasharray="1,5" points="1019,-176.8 1019,-312.8 1275,-312.8 1275,-176.8 1019,-176.8"/>
</g>
<g id="clust42" class="cluster">
<title>cluster_ResponseQuestionModule_providers</title>
<polygon fill="none" stroke="black" points="1027,-184.8 1027,-236.8 1267,-236.8 1267,-184.8 1027,-184.8"/>
</g>
<g id="clust43" class="cluster">
<title>cluster_SurveyModule</title>
<polygon fill="none" stroke="black" stroke-dasharray="1,5" points="400,-176.8 400,-244.8 793,-244.8 793,-176.8 400,-176.8"/>
</g>
<g id="clust48" class="cluster">
<title>cluster_SurveyModule_providers</title>
<polygon fill="none" stroke="black" points="408,-184.8 408,-236.8 785,-236.8 785,-184.8 408,-184.8"/>
</g>
<!-- AnswerService -->
<g id="node1" class="node">
<title>AnswerService</title>
<ellipse fill="#fdb462" stroke="black" cx="1077" cy="-66.8" rx="70.06" ry="18"/>
<text text-anchor="middle" x="1077" y="-62.6" font-family="Times,serif" font-size="14.00">AnswerService</text>
</g>
<!-- AnswerModule -->
<g id="node2" class="node">
<title>AnswerModule</title>
<polygon fill="#8dd3c7" stroke="black" points="1102.6,-152.8 1099.6,-156.8 1078.6,-156.8 1075.6,-152.8 999.4,-152.8 999.4,-116.8 1102.6,-116.8 1102.6,-152.8"/>
<text text-anchor="middle" x="1051" y="-130.6" font-family="Times,serif" font-size="14.00">AnswerModule</text>
</g>
<!-- AnswerService&#45;&gt;AnswerModule -->
<g id="edge1" class="edge">
<title>AnswerService&#45;&gt;AnswerModule</title>
<path fill="none" stroke="black" d="M1054.76,-83.96C1054.76,-83.96 1054.76,-106.45 1054.76,-106.45"/>
<polygon fill="black" stroke="black" points="1051.26,-106.45 1054.76,-116.45 1058.26,-106.45 1051.26,-106.45"/>
</g>
<!-- QuestionModule -->
<g id="node9" class="node">
<title>QuestionModule</title>
<polygon fill="#8dd3c7" stroke="black" points="960.1,-228.8 957.1,-232.8 936.1,-232.8 933.1,-228.8 849.9,-228.8 849.9,-192.8 960.1,-192.8 960.1,-228.8"/>
<text text-anchor="middle" x="905" y="-206.6" font-family="Times,serif" font-size="14.00">QuestionModule</text>
</g>
<!-- AnswerModule&#45;&gt;QuestionModule -->
<g id="edge6" class="edge">
<title>AnswerModule&#45;&gt;QuestionModule</title>
<path fill="none" stroke="black" d="M1017.9,-152.83C1017.9,-173.57 1017.9,-204.8 1017.9,-204.8 1017.9,-204.8 970.12,-204.8 970.12,-204.8"/>
<polygon fill="black" stroke="black" points="970.12,-201.3 960.12,-204.8 970.12,-208.3 970.12,-201.3"/>
</g>
<!-- ResponseAnswerModule -->
<g id="node12" class="node">
<title>ResponseAnswerModule</title>
<polygon fill="#8dd3c7" stroke="black" points="384.26,-304.8 381.26,-308.8 360.26,-308.8 357.26,-304.8 227.74,-304.8 227.74,-268.8 384.26,-268.8 384.26,-304.8"/>
<text text-anchor="middle" x="306" y="-282.6" font-family="Times,serif" font-size="14.00">ResponseAnswerModule</text>
</g>
<!-- AnswerModule&#45;&gt;ResponseAnswerModule -->
<g id="edge8" class="edge">
<title>AnswerModule&#45;&gt;ResponseAnswerModule</title>
<path fill="none" stroke="black" d="M1008.67,-152.91C1008.67,-162.7 1008.67,-172.8 1008.67,-172.8 1008.67,-172.8 379.99,-172.8 379.99,-172.8 379.99,-172.8 379.99,-258.74 379.99,-258.74"/>
<polygon fill="black" stroke="black" points="376.49,-258.74 379.99,-268.74 383.49,-258.74 376.49,-258.74"/>
</g>
<!-- Participant -->
<g id="node3" class="node">
<title>Participant</title>
<polygon fill="#8dd3c7" stroke="black" points="630.15,-304.8 627.15,-308.8 606.15,-308.8 603.15,-304.8 553.85,-304.8 553.85,-268.8 630.15,-268.8 630.15,-304.8"/>
<text text-anchor="middle" x="592" y="-282.6" font-family="Times,serif" font-size="14.00">Participant</text>
</g>
<!-- AppModule -->
<g id="node5" class="node">
<title>AppModule</title>
<polygon fill="#8dd3c7" stroke="black" points="633.66,-369.8 630.66,-373.8 609.66,-373.8 606.66,-369.8 550.34,-369.8 550.34,-333.8 633.66,-333.8 633.66,-369.8"/>
<text text-anchor="middle" x="592" y="-347.6" font-family="Times,serif" font-size="14.00">AppModule</text>
</g>
<!-- Participant&#45;&gt;AppModule -->
<g id="edge2" class="edge">
<title>Participant&#45;&gt;AppModule</title>
<path fill="none" stroke="black" d="M592,-304.91C592,-304.91 592,-323.79 592,-323.79"/>
<polygon fill="black" stroke="black" points="588.5,-323.79 592,-333.79 595.5,-323.79 588.5,-323.79"/>
</g>
<!-- ResponseModule -->
<g id="node11" class="node">
<title>ResponseModule</title>
<polygon fill="#8dd3c7" stroke="black" points="375.71,-228.8 372.71,-232.8 351.71,-232.8 348.71,-228.8 262.29,-228.8 262.29,-192.8 375.71,-192.8 375.71,-228.8"/>
<text text-anchor="middle" x="319" y="-206.6" font-family="Times,serif" font-size="14.00">ResponseModule</text>
</g>
<!-- Participant&#45;&gt;ResponseModule -->
<g id="edge11" class="edge">
<title>Participant&#45;&gt;ResponseModule</title>
<path fill="none" stroke="black" d="M561.15,-268.6C561.15,-262.77 561.15,-257.8 561.15,-257.8 561.15,-257.8 356.74,-257.8 356.74,-257.8 356.74,-257.8 356.74,-238.84 356.74,-238.84"/>
<polygon fill="black" stroke="black" points="360.24,-238.84 356.74,-228.84 353.24,-238.84 360.24,-238.84"/>
</g>
<!-- SurveyModule -->
<g id="node4" class="node">
<title>SurveyModule</title>
<polygon fill="#8dd3c7" stroke="black" points="747.71,-304.8 744.71,-308.8 723.71,-308.8 720.71,-304.8 648.29,-304.8 648.29,-268.8 747.71,-268.8 747.71,-304.8"/>
<text text-anchor="middle" x="698" y="-282.6" font-family="Times,serif" font-size="14.00">SurveyModule</text>
</g>
<!-- SurveyModule&#45;&gt;SurveyModule -->
<g id="edge17" class="edge">
<title>SurveyModule&#45;&gt;SurveyModule</title>
<path fill="none" stroke="black" d="M714.54,-268.68C714.54,-265.83 714.54,-263.8 714.54,-263.8 714.54,-263.8 641.11,-263.8 641.11,-263.8 641.11,-263.8 641.11,-319.8 641.11,-319.8 641.11,-319.8 714.54,-319.8 714.54,-319.8 714.54,-319.8 714.54,-314.84 714.54,-314.84"/>
<polygon fill="black" stroke="black" points="718.04,-314.84 714.54,-304.84 711.04,-314.84 718.04,-314.84"/>
</g>
<!-- SurveyModule&#45;&gt;AppModule -->
<g id="edge3" class="edge">
<title>SurveyModule&#45;&gt;AppModule</title>
<path fill="none" stroke="black" d="M681.46,-304.91C681.46,-324.14 681.46,-351.8 681.46,-351.8 681.46,-351.8 643.85,-351.8 643.85,-351.8"/>
<polygon fill="black" stroke="black" points="643.85,-348.3 633.85,-351.8 643.85,-355.3 643.85,-348.3"/>
</g>
<!-- AppService -->
<g id="node6" class="node">
<title>AppService</title>
<ellipse fill="#fdb462" stroke="black" cx="473" cy="-286.8" rx="56.75" ry="18"/>
<text text-anchor="middle" x="473" y="-282.6" font-family="Times,serif" font-size="14.00">AppService</text>
</g>
<!-- AppService&#45;&gt;AppModule -->
<g id="edge4" class="edge">
<title>AppService&#45;&gt;AppModule</title>
<path fill="none" stroke="black" d="M473,-304.91C473,-324.14 473,-351.8 473,-351.8 473,-351.8 540.05,-351.8 540.05,-351.8"/>
<polygon fill="black" stroke="black" points="540.05,-355.3 550.05,-351.8 540.05,-348.3 540.05,-355.3"/>
</g>
<!-- ParticipantService -->
<g id="node7" class="node">
<title>ParticipantService</title>
<ellipse fill="#fdb462" stroke="black" cx="1269" cy="-66.8" rx="81.66" ry="18"/>
<text text-anchor="middle" x="1269" y="-62.6" font-family="Times,serif" font-size="14.00">ParticipantService</text>
</g>
<!-- ParticipantModule -->
<g id="node8" class="node">
<title>ParticipantModule</title>
<polygon fill="#8dd3c7" stroke="black" points="1329.2,-152.8 1326.2,-156.8 1305.2,-156.8 1302.2,-152.8 1208.8,-152.8 1208.8,-116.8 1329.2,-116.8 1329.2,-152.8"/>
<text text-anchor="middle" x="1269" y="-130.6" font-family="Times,serif" font-size="14.00">ParticipantModule</text>
</g>
<!-- ParticipantService&#45;&gt;ParticipantModule -->
<g id="edge5" class="edge">
<title>ParticipantService&#45;&gt;ParticipantModule</title>
<path fill="none" stroke="black" d="M1269,-85.02C1269,-85.02 1269,-106.53 1269,-106.53"/>
<polygon fill="black" stroke="black" points="1265.5,-106.53 1269,-116.53 1272.5,-106.53 1265.5,-106.53"/>
</g>
<!-- QuestionModule&#45;&gt;SurveyModule -->
<g id="edge19" class="edge">
<title>QuestionModule&#45;&gt;SurveyModule</title>
<path fill="none" stroke="black" d="M905,-228.81C905,-251.29 905,-286.8 905,-286.8 905,-286.8 757.85,-286.8 757.85,-286.8"/>
<polygon fill="black" stroke="black" points="757.85,-283.3 747.85,-286.8 757.85,-290.3 757.85,-283.3"/>
</g>
<!-- ResponseQuestionModule -->
<g id="node15" class="node">
<title>ResponseQuestionModule</title>
<polygon fill="#8dd3c7" stroke="black" points="1190.77,-304.8 1187.77,-308.8 1166.77,-308.8 1163.77,-304.8 1027.23,-304.8 1027.23,-268.8 1190.77,-268.8 1190.77,-304.8"/>
<text text-anchor="middle" x="1109" y="-282.6" font-family="Times,serif" font-size="14.00">ResponseQuestionModule</text>
</g>
<!-- QuestionModule&#45;&gt;ResponseQuestionModule -->
<g id="edge13" class="edge">
<title>QuestionModule&#45;&gt;ResponseQuestionModule</title>
<path fill="none" stroke="black" d="M960.16,-216.8C994.61,-216.8 1032.45,-216.8 1032.45,-216.8 1032.45,-216.8 1032.45,-258.77 1032.45,-258.77"/>
<polygon fill="black" stroke="black" points="1028.95,-258.77 1032.45,-268.77 1035.95,-258.77 1028.95,-258.77"/>
</g>
<!-- QuestionService -->
<g id="node10" class="node">
<title>QuestionService</title>
<ellipse fill="#fdb462" stroke="black" cx="892" cy="-134.8" rx="74.73" ry="18"/>
<text text-anchor="middle" x="892" y="-130.6" font-family="Times,serif" font-size="14.00">QuestionService</text>
</g>
<!-- QuestionService&#45;&gt;QuestionModule -->
<g id="edge7" class="edge">
<title>QuestionService&#45;&gt;QuestionModule</title>
<path fill="none" stroke="black" d="M905,-152.81C905,-152.81 905,-182.65 905,-182.65"/>
<polygon fill="black" stroke="black" points="901.5,-182.65 905,-192.65 908.5,-182.65 901.5,-182.65"/>
</g>
<!-- ResponseModule&#45;&gt;SurveyModule -->
<g id="edge16" class="edge">
<title>ResponseModule&#45;&gt;SurveyModule</title>
<path fill="none" stroke="black" d="M319,-229.22C319,-238.08 319,-246.8 319,-246.8 319,-246.8 681.46,-246.8 681.46,-246.8 681.46,-246.8 681.46,-258.67 681.46,-258.67"/>
<polygon fill="black" stroke="black" points="677.96,-258.67 681.46,-268.67 684.96,-258.67 677.96,-258.67"/>
</g>
<!-- ResponseModule&#45;&gt;SurveyModule -->
<g id="edge20" class="edge">
<title>ResponseModule&#45;&gt;SurveyModule</title>
<path fill="none" stroke="black" d="M300.13,-228.9C300.13,-239.89 300.13,-251.8 300.13,-251.8 300.13,-251.8 664.93,-251.8 664.93,-251.8 664.93,-251.8 664.93,-258.48 664.93,-258.48"/>
<polygon fill="black" stroke="black" points="661.43,-258.48 664.93,-268.48 668.43,-258.48 661.43,-258.48"/>
</g>
<!-- ResponseModule&#45;&gt;ResponseAnswerModule -->
<g id="edge9" class="edge">
<title>ResponseModule&#45;&gt;ResponseAnswerModule</title>
<path fill="none" stroke="black" d="M281.26,-228.81C281.26,-228.81 281.26,-258.65 281.26,-258.65"/>
<polygon fill="black" stroke="black" points="277.76,-258.65 281.26,-268.65 284.76,-258.65 277.76,-258.65"/>
</g>
<!-- ResponseModule&#45;&gt;ResponseQuestionModule -->
<g id="edge14" class="edge">
<title>ResponseModule&#45;&gt;ResponseQuestionModule</title>
<path fill="none" stroke="black" d="M337.87,-228.99C337.87,-232.34 337.87,-234.8 337.87,-234.8 337.87,-234.8 1029.79,-234.8 1029.79,-234.8 1029.79,-234.8 1029.79,-258.61 1029.79,-258.61"/>
<polygon fill="black" stroke="black" points="1026.29,-258.61 1029.79,-268.61 1033.29,-258.61 1026.29,-258.61"/>
</g>
<!-- ResponseAnswerService -->
<g id="node13" class="node">
<title>ResponseAnswerService</title>
<ellipse fill="#fdb462" stroke="black" cx="131" cy="-210.8" rx="107.09" ry="18"/>
<text text-anchor="middle" x="131" y="-206.6" font-family="Times,serif" font-size="14.00">ResponseAnswerService</text>
</g>
<!-- ResponseAnswerService&#45;&gt;ResponseAnswerModule -->
<g id="edge10" class="edge">
<title>ResponseAnswerService&#45;&gt;ResponseAnswerModule</title>
<path fill="none" stroke="black" d="M232.83,-216.76C232.83,-216.76 232.83,-258.73 232.83,-258.73"/>
<polygon fill="black" stroke="black" points="229.33,-258.73 232.83,-268.73 236.33,-258.73 229.33,-258.73"/>
</g>
<!-- ResponseService -->
<g id="node14" class="node">
<title>ResponseService</title>
<ellipse fill="#fdb462" stroke="black" cx="319" cy="-134.8" rx="77.02" ry="18"/>
<text text-anchor="middle" x="319" y="-130.6" font-family="Times,serif" font-size="14.00">ResponseService</text>
</g>
<!-- ResponseService&#45;&gt;ResponseModule -->
<g id="edge12" class="edge">
<title>ResponseService&#45;&gt;ResponseModule</title>
<path fill="none" stroke="black" d="M319,-152.81C319,-152.81 319,-182.65 319,-182.65"/>
<polygon fill="black" stroke="black" points="315.5,-182.65 319,-192.65 322.5,-182.65 315.5,-182.65"/>
</g>
<!-- ResponseQuestionService -->
<g id="node16" class="node">
<title>ResponseQuestionService</title>
<ellipse fill="#fdb462" stroke="black" cx="1147" cy="-210.8" rx="111.76" ry="18"/>
<text text-anchor="middle" x="1147" y="-206.6" font-family="Times,serif" font-size="14.00">ResponseQuestionService</text>
</g>
<!-- ResponseQuestionService&#45;&gt;ResponseQuestionModule -->
<g id="edge15" class="edge">
<title>ResponseQuestionService&#45;&gt;ResponseQuestionModule</title>
<path fill="none" stroke="black" d="M1113,-228.05C1113,-228.05 1113,-258.56 1113,-258.56"/>
<polygon fill="black" stroke="black" points="1109.5,-258.56 1113,-268.56 1116.5,-258.56 1109.5,-258.56"/>
</g>
<!-- ResponseSurveyService -->
<g id="node17" class="node">
<title>ResponseSurveyService</title>
<ellipse fill="#fdb462" stroke="black" cx="673" cy="-210.8" rx="104.23" ry="18"/>
<text text-anchor="middle" x="673" y="-206.6" font-family="Times,serif" font-size="14.00">ResponseSurveyService</text>
</g>
<!-- ResponseSurveyService&#45;&gt;SurveyModule -->
<g id="edge18" class="edge">
<title>ResponseSurveyService&#45;&gt;SurveyModule</title>
<path fill="none" stroke="black" d="M731.07,-225.82C731.07,-225.82 731.07,-258.6 731.07,-258.6"/>
<polygon fill="black" stroke="black" points="727.57,-258.6 731.07,-268.6 734.57,-258.6 727.57,-258.6"/>
</g>
<!-- SurveyService -->
<g id="node18" class="node">
<title>SurveyService</title>
<ellipse fill="#fdb462" stroke="black" cx="483" cy="-210.8" rx="67.2" ry="18"/>
<text text-anchor="middle" x="483" y="-206.6" font-family="Times,serif" font-size="14.00">SurveyService</text>
</g>
<!-- SurveyService&#45;&gt;SurveyModule -->
<g id="edge21" class="edge">
<title>SurveyService&#45;&gt;SurveyModule</title>
<path fill="none" stroke="black" d="M539.9,-220.62C539.9,-229.37 539.9,-240.8 539.9,-240.8 539.9,-240.8 698,-240.8 698,-240.8 698,-240.8 698,-258.62 698,-258.62"/>
<polygon fill="black" stroke="black" points="694.5,-258.62 698,-268.62 701.5,-258.62 694.5,-258.62"/>
</g>
</g>
</svg>
